# Blender 3.5.0
# www.blender.org
mtllib necklace1.mtl
o necklace.001
v -0.203875 -0.569967 -0.161845
v -0.266067 -0.577112 -0.081139
v -0.202890 -0.496829 -0.166314
v -0.264765 -0.503939 -0.085996
v -0.288311 -0.588094 0.013891
v -0.286904 -0.514885 0.008577
v -0.266067 -0.601891 0.109027
v -0.264765 -0.528576 0.103255
v -0.202890 -0.544028 0.184312
v -0.203875 -0.617412 0.190472
v -0.110218 -0.632335 0.245589
v -0.109654 -0.558881 0.239148
v 0.000018 -0.639234 0.265651
v 0.000018 -0.565779 0.259105
v 0.110218 -0.632335 0.245589
v 0.109654 -0.558881 0.239148
v 0.202890 -0.544028 0.184312
v 0.203875 -0.617412 0.190472
v 0.266067 -0.601891 0.109027
v 0.264765 -0.528576 0.103255
v 0.288311 -0.588094 0.013891
v 0.286904 -0.514885 0.008577
v 0.266067 -0.577112 -0.081139
v 0.264765 -0.503939 -0.085996
v 0.202890 -0.496829 -0.166314
v 0.203875 -0.569967 -0.161845
v 0.197997 -0.583694 -0.155791
v 0.258394 -0.590663 -0.077408
v 0.280005 -0.601327 0.014912
v 0.258394 -0.614702 0.107302
v 0.197997 -0.629766 0.186424
v 0.107015 -0.644267 0.239923
v 0.000018 -0.650990 0.259386
v -0.107015 -0.644267 0.239923
v -0.197997 -0.629766 0.186424
v -0.258395 -0.614702 0.107302
v -0.280005 -0.601327 0.014912
v -0.258395 -0.590663 -0.077408
v -0.197997 -0.583694 -0.155791
v -0.107015 -0.580949 -0.207705
v -0.110218 -0.567116 -0.215343
v -0.109654 -0.494013 -0.219531
v -0.106311 -0.482645 -0.213337
v -0.196660 -0.485390 -0.161739
v -0.256670 -0.492289 -0.083884
v -0.278140 -0.502883 0.007767
v -0.256670 -0.516187 0.099559
v -0.196660 -0.531146 0.178153
v -0.106311 -0.545541 0.231264
v 0.000018 -0.552228 0.250622
v 0.106311 -0.545541 0.231264
v 0.196660 -0.531146 0.178153
v 0.256670 -0.516187 0.099559
v 0.278140 -0.502883 0.007767
v 0.256670 -0.492289 -0.083884
v 0.196660 -0.485390 -0.161739
v 0.106311 -0.482645 -0.213337
v 0.109654 -0.494013 -0.219531
v 0.110218 -0.567116 -0.215343
v 0.107015 -0.580949 -0.207705
v 0.095787 -0.567996 -0.185285
v 0.177196 -0.570777 -0.138791
v 0.231258 -0.577711 -0.068644
v 0.250616 -0.588410 0.013962
v 0.231258 -0.601855 0.096638
v 0.177196 -0.616955 0.167453
v 0.095787 -0.631491 0.215355
v 0.000018 -0.638248 0.232778
v -0.095787 -0.631491 0.215355
v -0.177196 -0.616955 0.167453
v -0.231258 -0.601855 0.096638
v -0.250616 -0.588410 0.013962
v -0.231258 -0.577711 -0.068644
v -0.177196 -0.570777 -0.138791
v -0.095787 -0.567996 -0.185285
v -0.095330 -0.495668 -0.188981
v 0.000018 -0.495281 -0.205523
v 0.000018 -0.567609 -0.201898
v 0.000018 -0.580562 -0.226289
v 0.000018 -0.566729 -0.234455
v 0.000018 -0.493591 -0.238538
v 0.000018 -0.482258 -0.231780
v 0.000018 -0.495281 -0.205523
v -0.095330 -0.495668 -0.188981
v -0.176316 -0.498413 -0.142733
v -0.230132 -0.505347 -0.072938
v -0.249384 -0.516011 0.009280
v -0.230132 -0.529351 0.091570
v -0.176316 -0.544415 0.162033
v -0.095330 -0.558881 0.209654
v 0.000018 -0.565568 0.227006
v 0.095329 -0.558881 0.209654
v 0.176316 -0.544415 0.162033
v 0.230132 -0.529351 0.091570
v 0.249384 -0.516011 0.009280
v 0.230132 -0.505347 -0.072938
v 0.176316 -0.498413 -0.142733
v 0.095329 -0.495668 -0.188981
v 0.000018 -0.495281 -0.205523
v 0.000018 -0.482258 -0.231780
v 0.000018 -0.493591 -0.238538
v 0.000018 -0.566729 -0.234455
v 0.000018 -0.580562 -0.226289
v 0.000018 -0.567609 -0.201898
v 0.000018 -0.495281 -0.205523
v 0.095329 -0.495668 -0.188981
v 0.176316 -0.498413 -0.142733
v 0.230132 -0.505347 -0.072938
v 0.249384 -0.516011 0.009280
v 0.230132 -0.529351 0.091570
v 0.176316 -0.544415 0.162033
v 0.095329 -0.558881 0.209654
v 0.000018 -0.565568 0.227006
v -0.095330 -0.558881 0.209654
v -0.176316 -0.544415 0.162033
v -0.230132 -0.529351 0.091570
v -0.249384 -0.516011 0.009280
v -0.230132 -0.505347 -0.072938
v -0.176316 -0.498413 -0.142733
vn -0.6262 -0.2779 -0.7284
vn -0.8615 -0.2689 -0.4307
vn -0.6427 0.2641 -0.7191
vn -0.8752 0.2917 -0.3859
vn -0.9661 -0.2567 -0.0269
vn -0.9497 0.3116 0.0329
vn -0.8919 -0.2371 0.3852
vn -0.8408 0.3188 0.4376
vn -0.6012 0.3167 0.7337
vn -0.6714 -0.2157 0.7090
vn -0.3610 -0.2050 0.9098
vn -0.3088 0.3088 0.8996
vn -0.0000 -0.2032 0.9791
vn -0.0000 0.3021 0.9533
vn 0.3611 -0.2051 0.9097
vn 0.3088 0.3088 0.8996
vn 0.6012 0.3167 0.7337
vn 0.6714 -0.2158 0.7090
vn 0.8919 -0.2370 0.3852
vn 0.8408 0.3188 0.4376
vn 0.9661 -0.2568 -0.0269
vn 0.9497 0.3115 0.0329
vn 0.8615 -0.2689 -0.4307
vn 0.8752 0.2917 -0.3860
vn 0.6428 0.2641 -0.7191
vn 0.6262 -0.2780 -0.7284
vn 0.1996 -0.9307 -0.3065
vn 0.3003 -0.9238 -0.2375
vn 0.3797 -0.9189 -0.1073
vn 0.3892 -0.9196 0.0533
vn 0.3335 -0.9208 0.2024
vn 0.2036 -0.9274 0.3138
vn -0.0000 -0.9309 0.3653
vn -0.2036 -0.9274 0.3138
vn -0.3335 -0.9208 0.2024
vn -0.3892 -0.9196 0.0533
vn -0.3796 -0.9189 -0.1073
vn -0.3003 -0.9238 -0.2374
vn -0.1996 -0.9307 -0.3065
vn -0.0990 -0.9391 -0.3291
vn -0.3247 -0.2805 -0.9033
vn -0.3346 0.2415 -0.9109
vn -0.1216 0.9400 -0.3188
vn -0.2444 0.9412 -0.2332
vn -0.3296 0.9410 -0.0762
vn -0.3320 0.9368 0.1106
vn -0.2425 0.9333 0.2650
vn -0.1170 0.9331 0.3400
vn -0.0230 0.9394 0.3421
vn -0.0000 0.9433 0.3319
vn 0.0229 0.9394 0.3421
vn 0.1170 0.9331 0.3400
vn 0.2425 0.9332 0.2651
vn 0.3320 0.9368 0.1107
vn 0.3295 0.9411 -0.0764
vn 0.2443 0.9412 -0.2332
vn 0.1216 0.9400 -0.3188
vn 0.3346 0.2415 -0.9109
vn 0.3247 -0.2804 -0.9033
vn 0.0989 -0.9391 -0.3291
vn -0.2945 -0.5256 0.7981
vn -0.5687 -0.5450 0.6161
vn -0.7649 -0.5696 0.3008
vn -0.8033 -0.5887 -0.0899
vn -0.6778 -0.5910 -0.4374
vn -0.4557 -0.5897 -0.6668
vn -0.2138 -0.5950 -0.7748
vn -0.0000 -0.6031 -0.7977
vn 0.2138 -0.5950 -0.7747
vn 0.4557 -0.5897 -0.6668
vn 0.6778 -0.5910 -0.4374
vn 0.8033 -0.5887 -0.0899
vn 0.7649 -0.5696 0.3008
vn 0.5687 -0.5450 0.6161
vn 0.2945 -0.5257 0.7981
vn 0.2620 0.5775 0.7732
vn -0.0000 0.5753 0.8180
vn -0.0000 -0.5188 0.8549
vn -0.0000 -0.9412 -0.3379
vn -0.0000 -0.2818 -0.9595
vn -0.0000 0.2309 -0.9730
vn -0.0000 0.9379 -0.3470
vn 0.2619 0.5775 0.7732
vn 0.5027 0.5837 0.6376
vn 0.7026 0.5833 0.4076
vn 0.8140 0.5744 0.0866
vn 0.7885 0.5520 -0.2712
vn 0.6254 0.5240 -0.5781
vn 0.3498 0.4942 -0.7959
vn -0.0000 0.4841 -0.8750
vn -0.3498 0.4942 -0.7959
vn -0.6255 0.5240 -0.5781
vn -0.7885 0.5520 -0.2713
vn -0.8140 0.5744 0.0866
vn -0.7026 0.5833 0.4076
vn -0.5027 0.5837 0.6376
vn -0.2620 0.5775 0.7732
vn -0.0000 0.5753 0.8179
vn -0.2619 0.5775 0.7732
vn -0.5027 0.5837 0.6377
vn -0.7885 0.5520 -0.2712
vn 0.6255 0.5240 -0.5781
vn 0.7885 0.5520 -0.2713
vn 0.5027 0.5837 0.6377
vt 0.364802 0.857275
vt 0.365529 0.796173
vt 0.408203 0.862367
vt 0.407718 0.803447
vt 0.365771 0.739679
vt 0.406748 0.747922
vt 0.365286 0.683184
vt 0.406748 0.691913
vt 0.406748 0.632023
vt 0.364317 0.623779
vt 0.363347 0.561708
vt 0.406506 0.567042
vt 0.362619 0.500121
vt 0.405778 0.500121
vt 0.363347 0.438292
vt 0.406506 0.432958
vt 0.406748 0.367977
vt 0.364317 0.376221
vt 0.365286 0.316816
vt 0.406748 0.308088
vt 0.365771 0.260322
vt 0.406748 0.252078
vt 0.365529 0.203827
vt 0.407718 0.196553
vt 0.408203 0.137633
vt 0.364802 0.142725
vt 0.354618 0.143210
vt 0.355830 0.204554
vt 0.356558 0.262019
vt 0.356558 0.318999
vt 0.356073 0.378160
vt 0.355830 0.439505
vt 0.355103 0.500121
vt 0.355830 0.560495
vt 0.356073 0.621840
vt 0.356558 0.681001
vt 0.356558 0.737981
vt 0.355830 0.795446
vt 0.354618 0.856790
vt 0.353406 0.923468
vt 0.363832 0.923711
vt 0.408931 0.926135
vt 0.417174 0.926620
vt 0.416447 0.863579
vt 0.416205 0.804902
vt 0.415477 0.749135
vt 0.415720 0.693125
vt 0.416205 0.632751
vt 0.416205 0.567527
vt 0.415962 0.500121
vt 0.416205 0.432473
vt 0.416205 0.367249
vt 0.415720 0.306875
vt 0.415477 0.250865
vt 0.416205 0.195098
vt 0.416447 0.136421
vt 0.417174 0.073380
vt 0.408931 0.073865
vt 0.363832 0.076289
vt 0.353406 0.076532
vt 0.335221 0.075077
vt 0.335706 0.140058
vt 0.336190 0.201887
vt 0.336675 0.260806
vt 0.335948 0.318756
vt 0.337160 0.378645
vt 0.338130 0.439747
vt 0.338858 0.500121
vt 0.338130 0.560253
vt 0.337160 0.621355
vt 0.335948 0.681244
vt 0.336675 0.739194
vt 0.336190 0.798113
vt 0.335706 0.859942
vt 0.335221 0.924923
vt 0.285757 0.925166
vt 0.283575 0.990147
vt 0.332311 0.991117
vt 0.349769 0.994754
vt 0.360437 0.996451
vt 0.412568 0.996451
vt 0.421296 0.995238
vt 0.440209 0.990874
vt 0.435844 0.927105
vt 0.435844 0.864791
vt 0.436814 0.804902
vt 0.435359 0.746952
vt 0.434874 0.689245
vt 0.434147 0.628629
vt 0.433662 0.564860
vt 0.433177 0.500121
vt 0.433662 0.435140
vt 0.434147 0.371371
vt 0.434874 0.310755
vt 0.435359 0.253048
vt 0.436814 0.195098
vt 0.435844 0.135209
vt 0.435844 0.072895
vt 0.440209 0.009126
vt 0.421296 0.004762
vt 0.412568 0.003549
vt 0.360437 0.003549
vt 0.349769 0.005246
vt 0.332311 0.008883
vt 0.283575 0.009853
vt 0.285757 0.074834
vt 0.286970 0.136663
vt 0.287940 0.195098
vt 0.288667 0.251593
vt 0.288667 0.309300
vt 0.289637 0.370402
vt 0.291334 0.434655
vt 0.292062 0.500121
vt 0.291334 0.565345
vt 0.289637 0.629598
vt 0.288667 0.690700
vt 0.288667 0.748407
vt 0.287940 0.804902
vt 0.286970 0.863337
s 1
usemtl NECKLACE.001
f 1/1/1 2/2/2 3/3/3
f 3/3/3 2/2/2 4/4/4
f 2/2/2 5/5/5 4/4/4
f 4/4/4 5/5/5 6/6/6
f 5/5/5 7/7/7 6/6/6
f 6/6/6 7/7/7 8/8/8
f 8/8/8 7/7/7 9/9/9
f 7/7/7 10/10/10 9/9/9
f 10/10/10 11/11/11 9/9/9
f 9/9/9 11/11/11 12/12/12
f 11/11/11 13/13/13 12/12/12
f 12/12/12 13/13/13 14/14/14
f 13/13/13 15/15/15 14/14/14
f 14/14/14 15/15/15 16/16/16
f 16/16/16 15/15/15 17/17/17
f 15/15/15 18/18/18 17/17/17
f 18/18/18 19/19/19 17/17/17
f 17/17/17 19/19/19 20/20/20
f 19/19/19 21/21/21 20/20/20
f 20/20/20 21/21/21 22/22/22
f 21/21/21 23/23/23 22/22/22
f 22/22/22 23/23/23 24/24/24
f 24/24/24 23/23/23 25/25/25
f 25/25/25 23/23/23 26/26/26
f 27/27/27 26/26/26 28/28/28
f 26/26/26 23/23/23 28/28/28
f 28/28/28 23/23/23 29/29/29
f 23/23/23 21/21/21 29/29/29
f 29/29/29 21/21/21 30/30/30
f 21/21/21 19/19/19 30/30/30
f 30/30/30 19/19/19 31/31/31
f 19/19/19 18/18/18 31/31/31
f 31/31/31 18/18/18 32/32/32
f 18/18/18 15/15/15 32/32/32
f 32/32/32 15/15/15 33/33/33
f 15/15/15 13/13/13 33/33/33
f 33/33/33 13/13/13 34/34/34
f 13/13/13 11/11/11 34/34/34
f 34/34/34 11/11/11 35/35/35
f 11/11/11 10/10/10 35/35/35
f 35/35/35 10/10/10 36/36/36
f 10/10/10 7/7/7 36/36/36
f 36/36/36 7/7/7 37/37/37
f 7/7/7 5/5/5 37/37/37
f 37/37/37 5/5/5 38/38/38
f 5/5/5 2/2/2 38/38/38
f 38/38/38 2/2/2 39/39/39
f 2/2/2 1/1/1 39/39/39
f 39/39/39 1/1/1 40/40/40
f 40/40/40 1/1/1 41/41/41
f 41/41/41 1/1/1 42/42/42
f 1/1/1 3/3/3 42/42/42
f 43/43/43 42/42/42 44/44/44
f 42/42/42 3/3/3 44/44/44
f 44/44/44 3/3/3 45/45/45
f 3/3/3 4/4/4 45/45/45
f 45/45/45 4/4/4 46/46/46
f 4/4/4 6/6/6 46/46/46
f 46/46/46 6/6/6 47/47/47
f 6/6/6 8/8/8 47/47/47
f 47/47/47 8/8/8 48/48/48
f 8/8/8 9/9/9 48/48/48
f 48/48/48 9/9/9 49/49/49
f 9/9/9 12/12/12 49/49/49
f 49/49/49 12/12/12 50/50/50
f 12/12/12 14/14/14 50/50/50
f 50/50/50 14/14/14 51/51/51
f 14/14/14 16/16/16 51/51/51
f 51/51/51 16/16/16 52/52/52
f 16/16/16 17/17/17 52/52/52
f 52/52/52 17/17/17 53/53/53
f 17/17/17 20/20/20 53/53/53
f 53/53/53 20/20/20 54/54/54
f 20/20/20 22/22/22 54/54/54
f 54/54/54 22/22/22 55/55/55
f 22/22/22 24/24/24 55/55/55
f 55/55/55 24/24/24 56/56/56
f 24/24/24 25/25/25 56/56/56
f 56/56/56 25/25/25 57/57/57
f 57/57/57 25/25/25 58/58/58
f 58/58/58 25/25/25 59/59/59
f 25/25/25 26/26/26 59/59/59
f 26/26/26 27/27/27 59/59/59
f 59/59/59 27/27/27 60/60/60
f 61/61/61 60/60/60 62/62/62
f 60/60/60 27/27/27 62/62/62
f 62/62/62 27/27/27 63/63/63
f 27/27/27 28/28/28 63/63/63
f 63/63/63 28/28/28 64/64/64
f 28/28/28 29/29/29 64/64/64
f 64/64/64 29/29/29 65/65/65
f 29/29/29 30/30/30 65/65/65
f 65/65/65 30/30/30 66/66/66
f 30/30/30 31/31/31 66/66/66
f 66/66/66 31/31/31 67/67/67
f 31/31/31 32/32/32 67/67/67
f 67/67/67 32/32/32 68/68/68
f 32/32/32 33/33/33 68/68/68
f 68/68/68 33/33/33 69/69/69
f 33/33/33 34/34/34 69/69/69
f 69/69/69 34/34/34 70/70/70
f 34/34/34 35/35/35 70/70/70
f 70/70/70 35/35/35 71/71/71
f 35/35/35 36/36/36 71/71/71
f 71/71/71 36/36/36 72/72/72
f 36/36/36 37/37/37 72/72/72
f 72/72/72 37/37/37 73/73/73
f 37/37/37 38/38/38 73/73/73
f 73/73/73 38/38/38 74/74/74
f 38/38/38 39/39/39 74/74/74
f 74/74/74 39/39/39 75/75/75
f 39/39/39 40/40/40 75/75/75
f 76/76/76 75/75/75 77/77/77
f 77/77/77 75/75/75 78/78/78
f 75/75/75 40/40/40 78/78/78
f 78/78/78 40/40/40 79/79/79
f 40/40/40 41/41/41 79/79/79
f 79/79/79 41/41/41 80/80/80
f 80/80/80 41/41/41 81/81/81
f 41/41/41 42/42/42 81/81/81
f 42/42/42 43/43/43 81/81/81
f 81/81/81 43/43/43 82/82/82
f 83/83/77 82/82/82 84/84/83
f 82/82/82 43/43/43 84/84/83
f 84/84/83 43/43/43 85/85/84
f 43/43/43 44/44/44 85/85/84
f 85/85/84 44/44/44 86/86/85
f 44/44/44 45/45/45 86/86/85
f 86/86/85 45/45/45 87/87/86
f 45/45/45 46/46/46 87/87/86
f 87/87/86 46/46/46 88/88/87
f 46/46/46 47/47/47 88/88/87
f 88/88/87 47/47/47 89/89/88
f 47/47/47 48/48/48 89/89/88
f 89/89/88 48/48/48 90/90/89
f 48/48/48 49/49/49 90/90/89
f 90/90/89 49/49/49 91/91/90
f 49/49/49 50/50/50 91/91/90
f 91/91/90 50/50/50 92/92/91
f 50/50/50 51/51/51 92/92/91
f 92/92/91 51/51/51 93/93/92
f 51/51/51 52/52/52 93/93/92
f 93/93/92 52/52/52 94/94/93
f 52/52/52 53/53/53 94/94/93
f 94/94/93 53/53/53 95/95/94
f 53/53/53 54/54/54 95/95/94
f 95/95/94 54/54/54 96/96/95
f 54/54/54 55/55/55 96/96/95
f 96/96/95 55/55/55 97/97/96
f 55/55/55 56/56/56 97/97/96
f 97/97/96 56/56/56 98/98/97
f 56/56/56 57/57/57 98/98/97
f 98/98/97 57/57/57 99/99/77
f 99/99/77 57/57/57 100/100/82
f 57/57/57 58/58/58 100/100/82
f 100/100/82 58/58/58 101/101/81
f 58/58/58 59/59/59 101/101/81
f 101/101/81 59/59/59 102/102/80
f 59/59/59 60/60/60 102/102/80
f 102/102/80 60/60/60 103/103/79
f 60/60/60 61/61/61 103/103/79
f 103/103/79 61/61/61 104/104/78
f 104/104/78 61/61/61 105/105/98
f 105/105/98 61/61/61 106/106/99
f 106/106/99 61/61/61 107/107/100
f 61/61/61 62/62/62 107/107/100
f 62/62/62 63/63/63 107/107/100
f 107/107/100 63/63/63 108/108/95
f 63/63/63 64/64/64 108/108/95
f 108/108/95 64/64/64 109/109/94
f 64/64/64 65/65/65 109/109/94
f 109/109/94 65/65/65 110/110/101
f 110/110/101 65/65/65 111/111/92
f 65/65/65 66/66/66 111/111/92
f 66/66/66 67/67/67 111/111/92
f 111/111/92 67/67/67 112/112/91
f 67/67/67 68/68/68 112/112/91
f 112/112/91 68/68/68 113/113/90
f 68/68/68 69/69/69 113/113/90
f 113/113/90 69/69/69 114/114/89
f 114/114/89 69/69/69 115/115/102
f 69/69/69 70/70/70 115/115/102
f 70/70/70 71/71/71 115/115/102
f 115/115/102 71/71/71 116/116/103
f 71/71/71 72/72/72 116/116/103
f 116/116/103 72/72/72 117/117/86
f 72/72/72 73/73/73 117/117/86
f 117/117/86 73/73/73 118/118/85
f 73/73/73 74/74/74 118/118/85
f 118/118/85 74/74/74 119/119/104
f 74/74/74 75/75/75 119/119/104
f 75/75/75 76/76/76 119/119/104
